<?xml version="1.0" standalone="no"?>
<!DOCTYPE svg PUBLIC "-//W3C//DTD SVG 20010904//EN"
 "http://www.w3.org/TR/2001/REC-SVG-20010904/DTD/svg10.dtd">
<svg version="1.0" xmlns="http://www.w3.org/2000/svg"
 width="50.000000pt" height="50.000000pt" viewBox="0 0 50.000000 50.000000"
 preserveAspectRatio="xMidYMid meet">

<g transform="translate(0.000000,50.000000) scale(0.100000,-0.100000)"
fill="#000000" stroke="none">
<path d="M17 459 c-14 -8 -17 -23 -16 -77 0 -86 16 -131 55 -157 29 -20 30
-21 12 -39 -10 -11 -18 -28 -18 -38 0 -47 62 -118 103 -118 11 0 37 18 59 40
l38 41 38 -41 c22 -22 48 -40 59 -40 41 0 103 71 103 118 0 10 -8 27 -18 38
-18 18 -17 19 12 39 39 26 55 71 55 156 1 79 -11 95 -65 84 -26 -4 -54 -24
-99 -68 -34 -34 -67 -71 -74 -82 l-11 -20 -12 20 c-23 39 -110 124 -143 139
-38 18 -53 19 -78 5z m89 -37 c52 -38 107 -100 123 -140 7 -17 17 -32 21 -32
4 0 15 18 25 41 21 46 124 146 160 155 42 10 48 -2 42 -84 -7 -98 -26 -124
-96 -135 -55 -9 -70 -27 -21 -27 35 0 70 -31 70 -61 0 -21 -59 -89 -78 -89
-19 0 -69 49 -82 80 -16 38 -24 38 -40 0 -14 -33 -64 -80 -85 -80 -19 0 -75
67 -75 90 0 30 36 60 70 60 49 0 34 18 -21 27 -68 11 -87 36 -96 125 -3 36 -3
74 0 82 9 24 39 19 83 -12z"/>
</g>
</svg>
